<svg xmlns="http://www.w3.org/2000/svg" viewBox="0 0 1254 1254" width="1254" height="1254" role="img" aria-label="TCRN brand mark">
<defs>
<linearGradient id="gTop" x1="420" y1="135" x2="820" y2="475" gradientUnits="userSpaceOnUse"><stop offset="0" stop-color="#2e82f0"/><stop offset="0.52" stop-color="#3298f6"/><stop offset="1" stop-color="#39a9fb"/></linearGradient>
<linearGradient id="gLeft" x1="165" y1="350" x2="540" y2="858" gradientUnits="userSpaceOnUse"><stop offset="0" stop-color="#7179f3"/><stop offset="0.55" stop-color="#6377f0"/><stop offset="1" stop-color="#5370e7"/></linearGradient>
<linearGradient id="gRight" x1="720" y1="350" x2="1092" y2="858" gradientUnits="userSpaceOnUse"><stop offset="0" stop-color="#58dfd9"/><stop offset="0.55" stop-color="#43d4cf"/><stop offset="1" stop-color="#20c5bd"/></linearGradient>
<linearGradient id="gBottom" x1="405" y1="720" x2="852" y2="1082" gradientUnits="userSpaceOnUse"><stop offset="0" stop-color="#3b5272"/><stop offset="0.58" stop-color="#334b6b"/><stop offset="1" stop-color="#263d59"/></linearGradient>
<linearGradient id="gCenter" x1="508" y1="482" x2="745" y2="724" gradientUnits="userSpaceOnUse"><stop offset="0" stop-color="#d6f57f"/><stop offset="0.50" stop-color="#c4ec8d"/><stop offset="1" stop-color="#9ee087"/></linearGradient>
<radialGradient id="nTop" cx="38%" cy="35%" r="75%"><stop offset="0" stop-color="#93cbfb"/><stop offset="1" stop-color="#59adf4"/></radialGradient>
<radialGradient id="nLeft" cx="38%" cy="35%" r="75%"><stop offset="0" stop-color="#aaaaf6"/><stop offset="1" stop-color="#8086ef"/></radialGradient>
<radialGradient id="nRight" cx="38%" cy="35%" r="75%"><stop offset="0" stop-color="#36d8d2"/><stop offset="1" stop-color="#08beb8"/></radialGradient>
<radialGradient id="nBottom" cx="38%" cy="35%" r="75%"><stop offset="0" stop-color="#8c9cb8"/><stop offset="1" stop-color="#61738e"/></radialGradient>
<filter id="softShadow" x="-10%" y="-10%" width="120%" height="120%" color-interpolation-filters="sRGB"><feDropShadow dx="0" dy="9" stdDeviation="14" flood-color="#1c344e" flood-opacity="0.11"/></filter>
</defs>
<path d="M 545.44 151.00 L 547.56 149.00 L 549.66 147.09 L 551.72 145.28 L 553.75 143.56 L 555.75 141.94 L 557.72 140.41 L 559.66 138.97 L 561.56 137.62 L 563.44 136.38 L 565.58 135.09 L 567.98 133.78 L 570.66 132.44 L 573.59 131.06 L 576.80 129.66 L 580.27 128.22 L 584.00 126.75 L 588.00 125.25 L 592.06 123.91 L 596.19 122.72 L 600.38 121.69 L 604.62 120.81 L 608.94 120.09 L 613.31 119.53 L 617.75 119.12 L 622.25 118.88 L 626.69 118.78 L 631.06 118.84 L 635.38 119.06 L 639.62 119.44 L 643.81 119.97 L 647.94 120.66 L 652.00 121.50 L 656.00 122.50 L 659.98 123.67 L 663.95 125.02 L 667.91 126.53 L 671.84 128.22 L 675.77 130.08 L 679.67 132.11 L 683.56 134.31 L 687.44 136.69 L 693.09 141.05 L 700.53 147.39 L 709.75 155.72 L 720.75 166.03 L 733.53 178.33 L 748.09 192.61 L 764.44 208.88 L 782.56 227.12 L 798.52 243.33 L 812.30 257.48 L 823.91 269.59 L 833.34 279.66 L 840.61 287.67 L 845.70 293.64 L 848.62 297.56 L 849.38 299.44 L 850.03 301.30 L 850.59 303.14 L 851.06 304.97 L 851.44 306.78 L 851.72 308.58 L 851.91 310.36 L 852.00 312.12 L 852.00 313.88 L 851.89 315.66 L 851.67 317.47 L 851.34 319.31 L 850.91 321.19 L 850.36 323.09 L 849.70 325.03 L 848.94 327.00 L 848.06 329.00 L 845.05 333.00 L 839.89 339.00 L 832.59 347.00 L 823.16 357.00 L 811.58 369.00 L 797.86 383.00 L 782.00 399.00 L 764.00 417.00 L 748.11 432.80 L 734.33 446.39 L 722.66 457.78 L 713.09 466.97 L 705.64 473.95 L 700.30 478.73 L 697.06 481.31 L 695.94 481.69 L 694.66 481.97 L 693.22 482.16 L 691.62 482.25 L 689.88 482.25 L 687.97 482.16 L 685.91 481.97 L 683.69 481.69 L 681.31 481.31 L 678.84 480.62 L 676.28 479.62 L 673.62 478.31 L 670.88 476.69 L 668.03 474.75 L 665.09 472.50 L 662.06 469.94 L 658.94 467.06 L 656.12 464.38 L 653.62 461.88 L 651.44 459.56 L 649.56 457.44 L 648.00 455.50 L 646.75 453.75 L 645.81 452.19 L 645.19 450.81 L 644.64 448.77 L 644.17 446.05 L 643.78 442.66 L 643.47 438.59 L 643.23 433.86 L 643.08 428.45 L 643.00 422.38 L 643.00 415.62 L 643.08 409.55 L 643.23 404.14 L 643.47 399.41 L 643.78 395.34 L 644.17 391.95 L 644.64 389.23 L 645.19 387.19 L 645.81 385.81 L 646.56 384.44 L 647.44 383.06 L 648.44 381.69 L 649.56 380.31 L 650.81 378.94 L 652.19 377.56 L 653.69 376.19 L 655.31 374.81 L 656.83 373.47 L 658.23 372.16 L 659.53 370.88 L 660.72 369.62 L 661.80 368.41 L 662.77 367.22 L 663.62 366.06 L 664.38 364.94 L 665.11 363.67 L 665.83 362.27 L 666.53 360.72 L 667.22 359.03 L 667.89 357.20 L 668.55 355.23 L 669.19 353.12 L 669.81 350.88 L 670.34 348.69 L 670.78 346.56 L 671.12 344.50 L 671.38 342.50 L 671.53 340.56 L 671.59 338.69 L 671.56 336.88 L 671.44 335.12 L 671.23 333.36 L 670.95 331.58 L 670.59 329.78 L 670.16 327.97 L 669.64 326.14 L 669.05 324.30 L 668.38 322.44 L 667.62 320.56 L 666.70 318.67 L 665.61 316.77 L 664.34 314.84 L 662.91 312.91 L 661.30 310.95 L 659.52 308.98 L 657.56 307.00 L 655.44 305.00 L 653.33 303.17 L 651.23 301.52 L 649.16 300.03 L 647.09 298.72 L 645.05 297.58 L 643.02 296.61 L 641.00 295.81 L 639.00 295.19 L 636.89 294.69 L 634.67 294.31 L 632.34 294.06 L 629.91 293.94 L 627.36 293.94 L 624.70 294.06 L 621.94 294.31 L 619.06 294.69 L 616.27 295.22 L 613.55 295.91 L 610.91 296.75 L 608.34 297.75 L 605.86 298.91 L 603.45 300.22 L 601.12 301.69 L 598.88 303.31 L 596.78 304.95 L 594.84 306.61 L 593.06 308.28 L 591.44 309.97 L 589.97 311.67 L 588.66 313.39 L 587.50 315.12 L 586.50 316.88 L 585.59 318.80 L 584.78 320.89 L 584.06 323.16 L 583.44 325.59 L 582.91 328.20 L 582.47 330.98 L 582.12 333.94 L 581.88 337.06 L 581.70 339.95 L 581.61 342.61 L 581.59 345.03 L 581.66 347.22 L 581.80 349.17 L 582.02 350.89 L 582.31 352.38 L 582.69 353.62 L 583.14 354.92 L 583.67 356.27 L 584.28 357.66 L 584.97 359.09 L 585.73 360.58 L 586.58 362.11 L 587.50 363.69 L 588.50 365.31 L 589.58 366.91 L 590.73 368.47 L 591.97 370.00 L 593.28 371.50 L 594.67 372.97 L 596.14 374.41 L 597.69 375.81 L 599.31 377.19 L 600.80 378.53 L 602.14 379.84 L 603.34 381.12 L 604.41 382.38 L 605.33 383.59 L 606.11 384.78 L 606.75 385.94 L 607.25 387.06 L 607.70 388.81 L 608.11 391.19 L 608.47 394.19 L 608.78 397.81 L 609.05 402.06 L 609.27 406.94 L 609.44 412.44 L 609.56 418.56 L 609.56 424.22 L 609.44 429.41 L 609.19 434.12 L 608.81 438.38 L 608.31 442.16 L 607.69 445.47 L 606.94 448.31 L 606.06 450.69 L 604.98 453.06 L 603.70 455.44 L 602.22 457.81 L 600.53 460.19 L 598.64 462.56 L 596.55 464.94 L 594.25 467.31 L 591.75 469.69 L 589.38 471.84 L 587.12 473.78 L 585.00 475.50 L 583.00 477.00 L 581.12 478.28 L 579.38 479.34 L 577.75 480.19 L 576.25 480.81 L 574.72 481.34 L 573.16 481.78 L 571.56 482.12 L 569.94 482.38 L 568.28 482.53 L 566.59 482.59 L 564.88 482.56 L 563.12 482.44 L 561.45 482.25 L 559.86 482.00 L 558.34 481.69 L 556.91 481.31 L 555.55 480.88 L 554.27 480.38 L 553.06 479.81 L 551.94 479.19 L 548.72 476.38 L 543.41 471.38 L 536.00 464.19 L 526.50 454.81 L 514.91 443.25 L 501.22 429.50 L 485.44 413.56 L 467.56 395.44 L 451.86 379.42 L 438.33 365.52 L 426.97 353.72 L 417.78 344.03 L 410.77 336.45 L 405.92 330.98 L 403.25 327.62 L 402.75 326.38 L 402.30 325.09 L 401.89 323.78 L 401.53 322.44 L 401.22 321.06 L 400.95 319.66 L 400.73 318.22 L 400.56 316.75 L 400.44 315.25 L 400.36 313.80 L 400.33 312.39 L 400.34 311.03 L 400.41 309.72 L 400.52 308.45 L 400.67 307.23 L 400.88 306.06 L 401.12 304.94 L 401.45 303.77 L 401.86 302.55 L 402.34 301.28 L 402.91 299.97 L 403.55 298.61 L 404.27 297.20 L 405.06 295.75 L 405.94 294.25 L 408.72 290.89 L 413.41 285.67 L 420.00 278.59 L 428.50 269.66 L 438.91 258.86 L 451.22 246.20 L 465.44 231.69 L 481.56 215.31 L 495.94 200.73 L 508.56 187.95 L 519.44 176.97 L 528.56 167.78 L 535.94 160.39 L 541.56 154.80 Z" fill="url(#gTop)" filter="url(#softShadow)"/>
<path d="M 336.44 360.56 L 338.56 358.44 L 340.64 356.47 L 342.67 354.66 L 344.66 353.00 L 346.59 351.50 L 348.48 350.16 L 350.33 348.97 L 352.12 347.94 L 353.88 347.06 L 355.61 346.28 L 357.33 345.59 L 359.03 345.00 L 360.72 344.50 L 362.39 344.09 L 364.05 343.78 L 365.69 343.56 L 367.31 343.44 L 368.97 343.42 L 370.66 343.52 L 372.38 343.72 L 374.12 344.03 L 375.91 344.45 L 377.72 344.98 L 379.56 345.62 L 381.44 346.38 L 385.14 349.09 L 390.67 353.78 L 398.03 360.44 L 407.22 369.06 L 418.23 379.66 L 431.08 392.22 L 445.75 406.75 L 462.25 423.25 L 476.88 437.89 L 489.62 450.67 L 500.50 461.59 L 509.50 470.66 L 516.62 477.86 L 521.88 483.20 L 525.25 486.69 L 526.75 488.31 L 528.14 489.91 L 529.42 491.47 L 530.59 493.00 L 531.66 494.50 L 532.61 495.97 L 533.45 497.41 L 534.19 498.81 L 534.81 500.19 L 535.36 501.61 L 535.83 503.08 L 536.22 504.59 L 536.53 506.16 L 536.77 507.77 L 536.92 509.42 L 537.00 511.12 L 537.00 512.88 L 536.95 514.53 L 536.86 516.09 L 536.72 517.56 L 536.53 518.94 L 536.30 520.22 L 536.02 521.41 L 535.69 522.50 L 535.31 523.50 L 534.23 525.16 L 532.45 527.47 L 529.97 530.44 L 526.78 534.06 L 522.89 538.34 L 518.30 543.28 L 513.00 548.88 L 507.00 555.12 L 501.61 560.67 L 496.83 565.52 L 492.66 569.66 L 489.09 573.09 L 486.14 575.83 L 483.80 577.86 L 482.06 579.19 L 480.94 579.81 L 478.97 580.38 L 476.16 580.88 L 472.50 581.31 L 468.00 581.69 L 462.66 582.00 L 456.47 582.25 L 449.44 582.44 L 441.56 582.56 L 434.48 582.56 L 428.20 582.44 L 422.72 582.19 L 418.03 581.81 L 414.14 581.31 L 411.05 580.69 L 408.75 579.94 L 407.25 579.06 L 405.83 578.14 L 404.48 577.17 L 403.22 576.16 L 402.03 575.09 L 400.92 573.98 L 399.89 572.83 L 398.94 571.62 L 398.06 570.38 L 397.16 569.17 L 396.22 568.02 L 395.25 566.91 L 394.25 565.84 L 393.22 564.83 L 392.16 563.86 L 391.06 562.94 L 389.94 562.06 L 388.75 561.22 L 387.50 560.41 L 386.19 559.62 L 384.81 558.88 L 383.38 558.16 L 381.88 557.47 L 380.31 556.81 L 378.69 556.19 L 377.06 555.62 L 375.44 555.12 L 373.81 554.69 L 372.19 554.31 L 370.56 554.00 L 368.94 553.75 L 367.31 553.56 L 365.69 553.44 L 363.94 553.44 L 362.06 553.56 L 360.06 553.81 L 357.94 554.19 L 355.69 554.69 L 353.31 555.31 L 350.81 556.06 L 348.19 556.94 L 345.72 557.86 L 343.41 558.83 L 341.25 559.84 L 339.25 560.91 L 337.41 562.02 L 335.72 563.17 L 334.19 564.38 L 332.81 565.62 L 331.50 566.92 L 330.25 568.27 L 329.06 569.66 L 327.94 571.09 L 326.88 572.58 L 325.88 574.11 L 324.94 575.69 L 324.06 577.31 L 323.25 579.08 L 322.50 580.98 L 321.81 583.03 L 321.19 585.22 L 320.62 587.55 L 320.12 590.02 L 319.69 592.62 L 319.31 595.38 L 319.05 598.02 L 318.89 600.55 L 318.84 602.97 L 318.91 605.28 L 319.08 607.48 L 319.36 609.58 L 319.75 611.56 L 320.25 613.44 L 320.77 615.22 L 321.30 616.91 L 321.84 618.50 L 322.41 620.00 L 322.98 621.41 L 323.58 622.72 L 324.19 623.94 L 324.81 625.06 L 325.62 626.27 L 326.62 627.55 L 327.81 628.91 L 329.19 630.34 L 330.75 631.86 L 332.50 633.45 L 334.44 635.12 L 336.56 636.88 L 338.62 638.47 L 340.62 639.91 L 342.56 641.19 L 344.44 642.31 L 346.25 643.28 L 348.00 644.09 L 349.69 644.75 L 351.31 645.25 L 353.06 645.66 L 354.94 645.97 L 356.94 646.19 L 359.06 646.31 L 361.31 646.34 L 363.69 646.28 L 366.19 646.12 L 368.81 645.88 L 371.34 645.52 L 373.78 645.05 L 376.12 644.47 L 378.38 643.78 L 380.53 642.98 L 382.59 642.08 L 384.56 641.06 L 386.44 639.94 L 388.27 638.73 L 390.05 637.45 L 391.78 636.09 L 393.47 634.66 L 395.11 633.14 L 396.70 631.55 L 398.25 629.88 L 399.75 628.12 L 401.20 626.53 L 402.61 625.09 L 403.97 623.81 L 405.28 622.69 L 406.55 621.72 L 407.77 620.91 L 408.94 620.25 L 410.06 619.75 L 411.91 619.30 L 414.47 618.89 L 417.75 618.53 L 421.75 618.22 L 426.47 617.95 L 431.91 617.73 L 438.06 617.56 L 444.94 617.44 L 451.25 617.47 L 457.00 617.66 L 462.19 618.00 L 466.81 618.50 L 470.88 619.16 L 474.38 619.97 L 477.31 620.94 L 479.69 622.06 L 482.44 623.75 L 485.56 626.00 L 489.06 628.81 L 492.94 632.19 L 497.19 636.12 L 501.81 640.62 L 506.81 645.69 L 512.19 651.31 L 516.98 656.44 L 521.20 661.06 L 524.84 665.19 L 527.91 668.81 L 530.39 671.94 L 532.30 674.56 L 533.62 676.69 L 534.38 678.31 L 535.03 679.91 L 535.59 681.47 L 536.06 683.00 L 536.44 684.50 L 536.72 685.97 L 536.91 687.41 L 537.00 688.81 L 537.00 690.19 L 536.91 691.61 L 536.72 693.08 L 536.44 694.59 L 536.06 696.16 L 535.59 697.77 L 535.03 699.42 L 534.38 701.12 L 533.62 702.88 L 530.80 706.62 L 525.89 712.38 L 518.91 720.12 L 509.84 729.88 L 498.70 741.62 L 485.48 755.38 L 470.19 771.12 L 452.81 788.88 L 437.33 804.53 L 423.73 818.09 L 412.03 829.56 L 402.22 838.94 L 394.30 846.22 L 388.27 851.41 L 384.12 854.50 L 381.88 855.50 L 379.72 856.36 L 377.66 857.08 L 375.69 857.66 L 373.81 858.09 L 372.03 858.39 L 370.34 858.55 L 368.75 858.56 L 367.25 858.44 L 365.75 858.23 L 364.25 857.95 L 362.75 857.59 L 361.25 857.16 L 359.75 856.64 L 358.25 856.05 L 356.75 855.38 L 355.25 854.62 L 351.50 851.50 L 345.50 846.00 L 337.25 838.12 L 326.75 827.88 L 314.00 815.25 L 299.00 800.25 L 281.75 782.88 L 262.25 763.12 L 244.94 745.50 L 229.81 730.00 L 216.88 716.62 L 206.12 705.38 L 197.56 696.25 L 191.19 689.25 L 187.00 684.38 L 185.00 681.62 L 183.11 678.94 L 181.33 676.31 L 179.66 673.75 L 178.09 671.25 L 176.64 668.81 L 175.30 666.44 L 174.06 664.12 L 172.94 661.88 L 171.84 659.56 L 170.78 657.19 L 169.75 654.75 L 168.75 652.25 L 167.78 649.69 L 166.84 647.06 L 165.94 644.38 L 165.06 641.62 L 164.25 638.91 L 163.50 636.22 L 162.81 633.56 L 162.19 630.94 L 161.62 628.34 L 161.12 625.78 L 160.69 623.25 L 160.31 620.75 L 159.98 618.19 L 159.70 615.56 L 159.47 612.88 L 159.28 610.12 L 159.14 607.31 L 159.05 604.44 L 159.00 601.50 L 159.00 598.50 L 159.08 595.44 L 159.23 592.31 L 159.47 589.12 L 159.78 585.88 L 160.17 582.56 L 160.64 579.19 L 161.19 575.75 L 161.81 572.25 L 162.45 568.92 L 163.11 565.77 L 163.78 562.78 L 164.47 559.97 L 165.17 557.33 L 165.89 554.86 L 166.62 552.56 L 167.38 550.44 L 168.28 548.14 L 169.34 545.67 L 170.56 543.03 L 171.94 540.22 L 173.47 537.23 L 175.16 534.08 L 177.00 530.75 L 179.00 527.25 L 182.98 521.89 L 188.95 514.67 L 196.91 505.59 L 206.84 494.66 L 218.77 481.86 L 232.67 467.20 L 248.56 450.69 L 266.44 432.31 L 282.34 415.97 L 296.28 401.66 L 308.25 389.38 L 318.25 379.12 L 326.28 370.91 L 332.34 364.72 Z" fill="url(#gLeft)" filter="url(#softShadow)"/>
<path d="M 861.25 352.62 L 862.75 351.38 L 864.23 350.22 L 865.70 349.16 L 867.16 348.19 L 868.59 347.31 L 870.02 346.53 L 871.42 345.84 L 872.81 345.25 L 874.19 344.75 L 875.62 344.33 L 877.12 343.98 L 878.69 343.72 L 880.31 343.53 L 882.00 343.42 L 883.75 343.39 L 885.56 343.44 L 887.44 343.56 L 889.28 343.78 L 891.09 344.09 L 892.88 344.50 L 894.62 345.00 L 896.34 345.59 L 898.03 346.28 L 899.69 347.06 L 901.31 347.94 L 905.17 351.17 L 911.27 356.77 L 919.59 364.72 L 930.16 375.03 L 942.95 387.70 L 957.98 402.73 L 975.25 420.12 L 994.75 439.88 L 1012.09 457.62 L 1027.28 473.38 L 1040.31 487.12 L 1051.19 498.88 L 1059.91 508.62 L 1066.47 516.38 L 1070.88 522.12 L 1073.12 525.88 L 1075.20 529.45 L 1077.11 532.86 L 1078.84 536.09 L 1080.41 539.16 L 1081.80 542.05 L 1083.02 544.77 L 1084.06 547.31 L 1084.94 549.69 L 1085.78 552.16 L 1086.59 554.72 L 1087.38 557.38 L 1088.12 560.12 L 1088.84 562.97 L 1089.53 565.91 L 1090.19 568.94 L 1090.81 572.06 L 1091.36 575.33 L 1091.83 578.73 L 1092.22 582.28 L 1092.53 585.97 L 1092.77 589.80 L 1092.92 593.77 L 1093.00 597.88 L 1093.00 602.12 L 1092.94 606.17 L 1092.81 610.02 L 1092.62 613.66 L 1092.38 617.09 L 1092.06 620.33 L 1091.69 623.36 L 1091.25 626.19 L 1090.75 628.81 L 1090.19 631.45 L 1089.56 634.11 L 1088.88 636.78 L 1088.12 639.47 L 1087.31 642.17 L 1086.44 644.89 L 1085.50 647.62 L 1084.50 650.38 L 1083.41 653.16 L 1082.22 655.97 L 1080.94 658.81 L 1079.56 661.69 L 1078.09 664.59 L 1076.53 667.53 L 1074.88 670.50 L 1073.12 673.50 L 1069.05 678.75 L 1062.64 686.25 L 1053.91 696.00 L 1042.84 708.00 L 1029.45 722.25 L 1013.73 738.75 L 995.69 757.50 L 975.31 778.50 L 957.22 796.98 L 941.41 812.95 L 927.88 826.41 L 916.62 837.34 L 907.66 845.77 L 900.97 851.67 L 896.56 855.06 L 894.44 855.94 L 892.39 856.69 L 890.42 857.31 L 888.53 857.81 L 886.72 858.19 L 884.98 858.44 L 883.33 858.56 L 881.75 858.56 L 880.25 858.44 L 878.75 858.23 L 877.25 857.95 L 875.75 857.59 L 874.25 857.16 L 872.75 856.64 L 871.25 856.05 L 869.75 855.38 L 868.25 854.62 L 864.73 851.73 L 859.20 846.70 L 851.66 839.53 L 842.09 830.22 L 830.52 818.77 L 816.92 805.17 L 801.31 789.44 L 783.69 771.56 L 768.17 755.70 L 754.77 741.86 L 743.47 730.03 L 734.28 720.22 L 727.20 712.42 L 722.23 706.64 L 719.38 702.88 L 718.62 701.12 L 717.97 699.42 L 717.41 697.77 L 716.94 696.16 L 716.56 694.59 L 716.28 693.08 L 716.09 691.61 L 716.00 690.19 L 716.00 688.81 L 716.08 687.42 L 716.23 686.02 L 716.47 684.59 L 716.78 683.16 L 717.17 681.70 L 717.64 680.23 L 718.19 678.75 L 718.81 677.25 L 720.19 675.12 L 722.31 672.38 L 725.19 669.00 L 728.81 665.00 L 733.19 660.38 L 738.31 655.12 L 744.19 649.25 L 750.81 642.75 L 756.77 637.02 L 762.05 632.05 L 766.66 627.84 L 770.59 624.41 L 773.86 621.73 L 776.45 619.83 L 778.38 618.69 L 779.62 618.31 L 781.61 618.00 L 784.33 617.75 L 787.78 617.56 L 791.97 617.44 L 796.89 617.38 L 802.55 617.38 L 808.94 617.44 L 816.06 617.56 L 822.47 617.77 L 828.16 618.05 L 833.12 618.41 L 837.38 618.84 L 840.91 619.36 L 843.72 619.95 L 845.81 620.62 L 847.19 621.38 L 848.67 622.31 L 850.27 623.44 L 851.97 624.75 L 853.78 626.25 L 855.70 627.94 L 857.73 629.81 L 859.88 631.88 L 862.12 634.12 L 864.27 636.16 L 866.30 637.97 L 868.22 639.56 L 870.03 640.94 L 871.73 642.09 L 873.33 643.03 L 874.81 643.75 L 876.19 644.25 L 877.61 644.70 L 879.08 645.11 L 880.59 645.47 L 882.16 645.78 L 883.77 646.05 L 885.42 646.27 L 887.12 646.44 L 888.88 646.56 L 890.56 646.64 L 892.19 646.67 L 893.75 646.66 L 895.25 646.59 L 896.69 646.48 L 898.06 646.33 L 899.38 646.12 L 900.62 645.88 L 901.92 645.55 L 903.27 645.14 L 904.66 644.66 L 906.09 644.09 L 907.58 643.45 L 909.11 642.73 L 910.69 641.94 L 912.31 641.06 L 913.95 640.00 L 915.61 638.75 L 917.28 637.31 L 918.97 635.69 L 920.67 633.88 L 922.39 631.88 L 924.12 629.69 L 925.88 627.31 L 927.45 625.06 L 928.86 622.94 L 930.09 620.94 L 931.16 619.06 L 932.05 617.31 L 932.77 615.69 L 933.31 614.19 L 933.69 612.81 L 933.98 611.23 L 934.20 609.45 L 934.34 607.47 L 934.41 605.28 L 934.39 602.89 L 934.30 600.30 L 934.12 597.50 L 933.88 594.50 L 933.52 591.62 L 933.05 588.88 L 932.47 586.25 L 931.78 583.75 L 930.98 581.38 L 930.08 579.12 L 929.06 577.00 L 927.94 575.00 L 926.73 573.08 L 925.45 571.23 L 924.09 569.47 L 922.66 567.78 L 921.14 566.17 L 919.55 564.64 L 917.88 563.19 L 916.12 561.81 L 914.34 560.55 L 912.53 559.39 L 910.69 558.34 L 908.81 557.41 L 906.91 556.58 L 904.97 555.86 L 903.00 555.25 L 901.00 554.75 L 898.91 554.38 L 896.72 554.12 L 894.44 554.00 L 892.06 554.00 L 889.59 554.12 L 887.03 554.38 L 884.38 554.75 L 881.62 555.25 L 879.09 555.77 L 876.78 556.30 L 874.69 556.84 L 872.81 557.41 L 871.16 557.98 L 869.72 558.58 L 868.50 559.19 L 867.50 559.81 L 866.42 560.59 L 865.27 561.53 L 864.03 562.62 L 862.72 563.88 L 861.33 565.28 L 859.86 566.84 L 858.31 568.56 L 856.69 570.44 L 855.09 572.17 L 853.53 573.77 L 852.00 575.22 L 850.50 576.53 L 849.03 577.70 L 847.59 578.73 L 846.19 579.62 L 844.81 580.38 L 842.67 581.03 L 839.77 581.59 L 836.09 582.06 L 831.66 582.44 L 826.45 582.72 L 820.48 582.91 L 813.75 583.00 L 806.25 583.00 L 799.45 582.88 L 793.36 582.62 L 787.97 582.25 L 783.28 581.75 L 779.30 581.12 L 776.02 580.38 L 773.44 579.50 L 771.56 578.50 L 769.23 576.92 L 766.45 574.77 L 763.22 572.03 L 759.53 568.72 L 755.39 564.83 L 750.80 560.36 L 745.75 555.31 L 740.25 549.69 L 735.38 544.64 L 731.12 540.17 L 727.50 536.28 L 724.50 532.97 L 722.12 530.23 L 720.38 528.08 L 719.25 526.50 L 718.75 525.50 L 718.30 524.38 L 717.89 523.12 L 717.53 521.75 L 717.22 520.25 L 716.95 518.62 L 716.73 516.88 L 716.56 515.00 L 716.44 513.00 L 716.42 511.05 L 716.52 509.14 L 716.72 507.28 L 717.03 505.47 L 717.45 503.70 L 717.98 501.98 L 718.62 500.31 L 719.38 498.69 L 722.12 495.14 L 726.88 489.67 L 733.62 482.28 L 742.38 472.97 L 753.12 461.73 L 765.88 448.58 L 780.62 433.50 L 797.38 416.50 L 812.22 401.47 L 825.16 388.41 L 836.19 377.31 L 845.31 368.19 L 852.53 361.03 L 857.84 355.84 Z" fill="url(#gRight)" filter="url(#softShadow)"/>
<path d="M 522.00 751.00 L 528.00 745.00 L 533.39 739.69 L 538.17 735.06 L 542.34 731.12 L 545.91 727.88 L 548.86 725.31 L 551.20 723.44 L 552.94 722.25 L 554.06 721.75 L 555.19 721.30 L 556.31 720.89 L 557.44 720.53 L 558.56 720.22 L 559.69 719.95 L 560.81 719.73 L 561.94 719.56 L 563.06 719.44 L 564.22 719.38 L 565.41 719.38 L 566.62 719.44 L 567.88 719.56 L 569.16 719.75 L 570.47 720.00 L 571.81 720.31 L 573.19 720.69 L 574.75 721.33 L 576.50 722.23 L 578.44 723.41 L 580.56 724.84 L 582.88 726.55 L 585.38 728.52 L 588.06 730.75 L 590.94 733.25 L 593.58 735.69 L 595.98 738.06 L 598.16 740.38 L 600.09 742.62 L 601.80 744.81 L 603.27 746.94 L 604.50 749.00 L 605.50 751.00 L 606.38 753.70 L 607.12 757.11 L 607.75 761.22 L 608.25 766.03 L 608.62 771.55 L 608.88 777.77 L 609.00 784.69 L 609.00 792.31 L 608.95 799.11 L 608.86 805.08 L 608.72 810.22 L 608.53 814.53 L 608.30 818.02 L 608.02 820.67 L 607.69 822.50 L 607.31 823.50 L 606.72 824.62 L 605.91 825.88 L 604.88 827.25 L 603.62 828.75 L 602.16 830.38 L 600.47 832.12 L 598.56 834.00 L 596.44 836.00 L 594.48 837.92 L 592.70 839.77 L 591.09 841.53 L 589.66 843.22 L 588.39 844.83 L 587.30 846.36 L 586.38 847.81 L 585.62 849.19 L 584.94 850.78 L 584.31 852.59 L 583.75 854.62 L 583.25 856.88 L 582.81 859.34 L 582.44 862.03 L 582.12 864.94 L 581.88 868.06 L 581.77 871.06 L 581.80 873.94 L 581.97 876.69 L 582.28 879.31 L 582.73 881.81 L 583.33 884.19 L 584.06 886.44 L 584.94 888.56 L 585.92 890.62 L 587.02 892.62 L 588.22 894.56 L 589.53 896.44 L 590.95 898.25 L 592.48 900.00 L 594.12 901.69 L 595.88 903.31 L 597.66 904.83 L 599.47 906.23 L 601.31 907.53 L 603.19 908.72 L 605.09 909.80 L 607.03 910.77 L 609.00 911.62 L 611.00 912.38 L 613.06 913.02 L 615.19 913.55 L 617.38 913.97 L 619.62 914.28 L 621.94 914.48 L 624.31 914.58 L 626.75 914.56 L 629.25 914.44 L 631.67 914.22 L 634.02 913.91 L 636.28 913.50 L 638.47 913.00 L 640.58 912.41 L 642.61 911.72 L 644.56 910.94 L 646.44 910.06 L 648.23 909.14 L 649.95 908.17 L 651.59 907.16 L 653.16 906.09 L 654.64 904.98 L 656.05 903.83 L 657.38 902.62 L 658.62 901.38 L 659.84 899.98 L 661.03 898.45 L 662.19 896.78 L 663.31 894.97 L 664.41 893.02 L 665.47 890.92 L 666.50 888.69 L 667.50 886.31 L 668.34 883.86 L 669.03 881.33 L 669.56 878.72 L 669.94 876.03 L 670.16 873.27 L 670.22 870.42 L 670.12 867.50 L 669.88 864.50 L 669.48 861.61 L 668.95 858.83 L 668.28 856.16 L 667.47 853.59 L 666.52 851.14 L 665.42 848.80 L 664.19 846.56 L 662.81 844.44 L 661.42 842.42 L 660.02 840.52 L 658.59 838.72 L 657.16 837.03 L 655.70 835.45 L 654.23 833.98 L 652.75 832.62 L 651.25 831.38 L 649.89 830.14 L 648.67 828.92 L 647.59 827.72 L 646.66 826.53 L 645.86 825.36 L 645.20 824.20 L 644.69 823.06 L 644.31 821.94 L 644.00 819.97 L 643.75 817.16 L 643.56 813.50 L 643.44 809.00 L 643.38 803.66 L 643.38 797.47 L 643.44 790.44 L 643.56 782.56 L 643.75 775.52 L 644.00 769.30 L 644.31 763.91 L 644.69 759.34 L 645.12 755.61 L 645.62 752.70 L 646.19 750.62 L 646.81 749.38 L 647.70 747.95 L 648.86 746.36 L 650.28 744.59 L 651.97 742.66 L 653.92 740.55 L 656.14 738.27 L 658.62 735.81 L 661.38 733.19 L 664.00 730.81 L 666.50 728.69 L 668.88 726.81 L 671.12 725.19 L 673.25 723.81 L 675.25 722.69 L 677.12 721.81 L 678.88 721.19 L 680.61 720.67 L 682.33 720.27 L 684.03 719.97 L 685.72 719.78 L 687.39 719.70 L 689.05 719.73 L 690.69 719.88 L 692.31 720.12 L 693.84 720.41 L 695.28 720.72 L 696.62 721.06 L 697.88 721.44 L 699.03 721.84 L 700.09 722.28 L 701.06 722.75 L 701.94 723.25 L 704.84 725.84 L 709.78 730.53 L 716.75 737.31 L 725.75 746.19 L 736.78 757.16 L 749.84 770.22 L 764.94 785.38 L 782.06 802.62 L 797.19 817.97 L 810.31 831.41 L 821.44 842.94 L 830.56 852.56 L 837.69 860.28 L 842.81 866.09 L 845.94 870.00 L 847.06 872.00 L 848.06 873.97 L 848.94 875.91 L 849.69 877.81 L 850.31 879.69 L 850.81 881.53 L 851.19 883.34 L 851.44 885.12 L 851.56 886.88 L 851.64 888.53 L 851.67 890.09 L 851.66 891.56 L 851.59 892.94 L 851.48 894.22 L 851.33 895.41 L 851.12 896.50 L 850.88 897.50 L 850.58 898.52 L 850.23 899.55 L 849.84 900.59 L 849.41 901.66 L 848.92 902.73 L 848.39 903.83 L 847.81 904.94 L 847.19 906.06 L 846.42 907.28 L 845.52 908.59 L 844.47 910.00 L 843.28 911.50 L 841.95 913.09 L 840.48 914.78 L 838.88 916.56 L 837.12 918.44 L 833.58 922.11 L 828.23 927.58 L 821.09 934.84 L 812.16 943.91 L 801.42 954.77 L 788.89 967.42 L 774.56 981.88 L 758.44 998.12 L 744.14 1012.48 L 731.67 1024.95 L 721.03 1035.53 L 712.22 1044.22 L 705.23 1051.02 L 700.08 1055.92 L 696.75 1058.94 L 695.25 1060.06 L 693.59 1061.22 L 691.78 1062.41 L 689.81 1063.62 L 687.69 1064.88 L 685.41 1066.16 L 682.97 1067.47 L 680.38 1068.81 L 677.62 1070.19 L 674.77 1071.50 L 671.80 1072.75 L 668.72 1073.94 L 665.53 1075.06 L 662.23 1076.12 L 658.83 1077.12 L 655.31 1078.06 L 651.69 1078.94 L 648.12 1079.70 L 644.62 1080.36 L 641.19 1080.91 L 637.81 1081.34 L 634.50 1081.67 L 631.25 1081.89 L 628.06 1082.00 L 624.94 1082.00 L 621.80 1081.91 L 618.64 1081.72 L 615.47 1081.44 L 612.28 1081.06 L 609.08 1080.59 L 605.86 1080.03 L 602.62 1079.38 L 599.38 1078.62 L 596.23 1077.83 L 593.20 1076.98 L 590.28 1076.09 L 587.47 1075.16 L 584.77 1074.17 L 582.17 1073.14 L 579.69 1072.06 L 577.31 1070.94 L 574.97 1069.77 L 572.66 1068.55 L 570.38 1067.28 L 568.12 1065.97 L 565.91 1064.61 L 563.72 1063.20 L 561.56 1061.75 L 559.44 1060.25 L 555.36 1056.70 L 549.33 1051.11 L 541.34 1043.47 L 531.41 1033.78 L 519.52 1022.05 L 505.67 1008.27 L 489.88 992.44 L 472.12 974.56 L 456.48 958.70 L 442.95 944.86 L 431.53 933.03 L 422.22 923.22 L 415.02 915.42 L 409.92 909.64 L 406.94 905.88 L 406.06 904.12 L 405.28 902.38 L 404.59 900.62 L 404.00 898.88 L 403.50 897.12 L 403.09 895.38 L 402.78 893.62 L 402.56 891.88 L 402.44 890.12 L 402.44 888.33 L 402.56 886.48 L 402.81 884.59 L 403.19 882.66 L 403.69 880.67 L 404.31 878.64 L 405.06 876.56 L 405.94 874.44 L 408.14 871.09 L 411.67 866.53 L 416.53 860.75 L 422.72 853.75 L 430.23 845.53 L 439.08 836.09 L 449.25 825.44 L 460.75 813.56 L 471.56 802.42 L 481.69 792.02 L 491.12 782.34 L 499.88 773.41 L 507.94 765.20 L 515.31 757.73 Z" fill="url(#gBottom)" filter="url(#softShadow)"/>
<path d="M 606.81 316.66 L 607.19 316.34 L 607.55 316.05 L 607.89 315.78 L 608.22 315.52 L 608.53 315.29 L 608.83 315.07 L 609.11 314.88 L 609.38 314.70 L 609.62 314.55 L 609.86 314.41 L 610.08 314.29 L 610.28 314.20 L 610.47 314.12 L 610.64 314.06 L 610.80 314.02 L 610.94 314.00 L 611.06 314.00 L 611.18 313.99 L 611.30 313.98 L 611.41 313.95 L 611.52 313.92 L 611.63 313.88 L 611.73 313.84 L 611.83 313.78 L 611.92 313.72 L 612.01 313.65 L 612.10 313.57 L 612.18 313.48 L 612.26 313.39 L 612.33 313.29 L 612.40 313.18 L 612.47 313.06 L 612.53 312.94 L 612.63 312.81 L 612.76 312.69 L 612.93 312.56 L 613.13 312.44 L 613.37 312.31 L 613.64 312.19 L 613.95 312.06 L 614.30 311.94 L 614.68 311.81 L 615.09 311.69 L 615.54 311.56 L 616.02 311.44 L 616.54 311.31 L 617.10 311.19 L 617.69 311.06 L 618.31 310.94 L 618.90 310.82 L 619.45 310.70 L 619.95 310.59 L 620.42 310.48 L 620.85 310.37 L 621.24 310.27 L 621.59 310.17 L 621.91 310.08 L 622.18 309.99 L 622.41 309.90 L 622.61 309.82 L 622.77 309.74 L 622.88 309.67 L 622.96 309.60 L 623.00 309.53 L 623.00 309.47 L 623.03 309.41 L 623.08 309.36 L 623.16 309.30 L 623.27 309.26 L 623.41 309.21 L 623.57 309.18 L 623.77 309.14 L 623.98 309.11 L 624.23 309.08 L 624.50 309.06 L 624.80 309.04 L 625.13 309.02 L 625.49 309.01 L 625.87 309.00 L 626.28 309.00 L 626.72 309.00 L 627.13 309.00 L 627.51 309.01 L 627.87 309.02 L 628.20 309.04 L 628.50 309.06 L 628.77 309.08 L 629.02 309.11 L 629.23 309.14 L 629.43 309.18 L 629.59 309.21 L 629.73 309.26 L 629.84 309.30 L 629.92 309.36 L 629.97 309.41 L 630.00 309.47 L 630.00 309.53 L 630.02 309.59 L 630.05 309.64 L 630.09 309.70 L 630.16 309.74 L 630.23 309.79 L 630.33 309.82 L 630.44 309.86 L 630.56 309.89 L 630.70 309.92 L 630.86 309.94 L 631.03 309.96 L 631.22 309.98 L 631.42 309.99 L 631.64 310.00 L 631.88 310.00 L 632.12 310.00 L 632.36 310.00 L 632.58 310.01 L 632.78 310.02 L 632.97 310.04 L 633.14 310.06 L 633.30 310.08 L 633.44 310.11 L 633.56 310.14 L 633.67 310.18 L 633.77 310.21 L 633.84 310.26 L 633.91 310.30 L 633.95 310.36 L 633.98 310.41 L 634.00 310.47 L 634.00 310.53 L 634.01 310.59 L 634.04 310.64 L 634.07 310.70 L 634.12 310.74 L 634.18 310.79 L 634.25 310.82 L 634.33 310.86 L 634.42 310.89 L 634.53 310.92 L 634.64 310.94 L 634.77 310.96 L 634.91 310.98 L 635.07 310.99 L 635.23 311.00 L 635.41 311.00 L 635.59 311.00 L 635.79 311.01 L 636.00 311.04 L 636.23 311.07 L 636.46 311.12 L 636.71 311.18 L 636.96 311.25 L 637.23 311.33 L 637.52 311.42 L 637.81 311.53 L 638.11 311.64 L 638.43 311.77 L 638.76 311.91 L 639.10 312.07 L 639.45 312.23 L 639.81 312.41 L 640.19 312.59 L 640.57 312.80 L 640.95 313.02 L 641.34 313.25 L 641.73 313.50 L 642.12 313.77 L 642.52 314.05 L 642.92 314.34 L 643.33 314.66 L 643.74 314.98 L 644.15 315.33 L 644.57 315.69 L 644.99 316.06 L 645.42 316.45 L 645.85 316.86 L 646.28 317.28 L 646.72 317.72 L 647.15 318.17 L 647.57 318.63 L 647.98 319.10 L 648.39 319.59 L 648.79 320.08 L 649.18 320.59 L 649.56 321.11 L 649.94 321.64 L 650.30 322.18 L 650.66 322.74 L 651.02 323.30 L 651.36 323.88 L 651.70 324.47 L 652.02 325.07 L 652.34 325.69 L 652.66 326.31 L 652.95 326.96 L 653.22 327.63 L 653.48 328.33 L 653.71 329.05 L 653.93 329.79 L 654.12 330.55 L 654.30 331.34 L 654.45 332.16 L 654.59 332.99 L 654.71 333.85 L 654.80 334.73 L 654.88 335.64 L 654.94 336.57 L 654.98 337.52 L 655.00 338.50 L 655.00 339.50 L 655.00 340.44 L 654.99 341.31 L 654.98 342.12 L 654.96 342.88 L 654.94 343.56 L 654.92 344.19 L 654.89 344.75 L 654.86 345.25 L 654.82 345.69 L 654.79 346.06 L 654.74 346.38 L 654.70 346.62 L 654.64 346.81 L 654.59 346.94 L 654.53 347.00 L 654.47 347.00 L 654.41 347.01 L 654.36 347.04 L 654.30 347.07 L 654.26 347.12 L 654.21 347.18 L 654.18 347.25 L 654.14 347.33 L 654.11 347.42 L 654.08 347.53 L 654.06 347.64 L 654.04 347.77 L 654.02 347.91 L 654.01 348.07 L 654.00 348.23 L 654.00 348.41 L 654.00 348.59 L 653.99 348.79 L 653.96 349.00 L 653.93 349.23 L 653.88 349.46 L 653.82 349.71 L 653.75 349.96 L 653.67 350.23 L 653.58 350.52 L 653.47 350.81 L 653.36 351.11 L 653.23 351.43 L 653.09 351.76 L 652.93 352.10 L 652.77 352.45 L 652.59 352.81 L 652.41 353.19 L 652.22 353.55 L 652.03 353.89 L 651.84 354.22 L 651.66 354.53 L 651.47 354.83 L 651.28 355.11 L 651.09 355.38 L 650.91 355.62 L 650.72 355.86 L 650.53 356.08 L 650.34 356.28 L 650.16 356.47 L 649.97 356.64 L 649.78 356.80 L 649.59 356.94 L 649.41 357.06 L 649.23 357.19 L 649.07 357.31 L 648.91 357.44 L 648.77 357.56 L 648.64 357.69 L 648.53 357.81 L 648.42 357.94 L 648.33 358.06 L 648.25 358.19 L 648.18 358.31 L 648.12 358.44 L 648.07 358.56 L 648.04 358.69 L 648.01 358.81 L 648.00 358.94 L 648.00 359.06 L 647.99 359.18 L 647.96 359.30 L 647.93 359.41 L 647.88 359.52 L 647.82 359.63 L 647.75 359.73 L 647.67 359.83 L 647.58 359.92 L 647.47 360.01 L 647.36 360.10 L 647.23 360.18 L 647.09 360.26 L 646.93 360.33 L 646.77 360.40 L 646.59 360.47 L 646.41 360.53 L 646.22 360.61 L 646.03 360.69 L 645.84 360.79 L 645.66 360.90 L 645.47 361.02 L 645.28 361.15 L 645.09 361.30 L 644.91 361.45 L 644.72 361.62 L 644.53 361.80 L 644.34 361.99 L 644.16 362.20 L 643.97 362.41 L 643.78 362.64 L 643.59 362.88 L 643.41 363.12 L 643.21 363.37 L 643.00 363.61 L 642.77 363.85 L 642.54 364.09 L 642.29 364.32 L 642.04 364.54 L 641.77 364.77 L 641.48 364.98 L 641.19 365.20 L 640.89 365.41 L 640.57 365.62 L 640.24 365.82 L 639.90 366.02 L 639.55 366.21 L 639.19 366.41 L 638.81 366.59 L 638.45 366.77 L 638.09 366.93 L 637.73 367.09 L 637.39 367.23 L 637.05 367.36 L 636.73 367.47 L 636.41 367.58 L 636.09 367.67 L 635.79 367.75 L 635.49 367.82 L 635.20 367.88 L 634.92 367.93 L 634.65 367.96 L 634.38 367.99 L 634.12 368.00 L 633.88 368.00 L 633.64 368.00 L 633.42 368.01 L 633.22 368.02 L 633.03 368.04 L 632.86 368.06 L 632.70 368.08 L 632.56 368.11 L 632.44 368.14 L 632.33 368.18 L 632.23 368.21 L 632.16 368.26 L 632.09 368.30 L 632.05 368.36 L 632.02 368.41 L 632.00 368.47 L 632.00 368.53 L 631.96 368.59 L 631.87 368.64 L 631.74 368.70 L 631.57 368.74 L 631.36 368.79 L 631.10 368.82 L 630.80 368.86 L 630.45 368.89 L 630.07 368.92 L 629.64 368.94 L 629.16 368.96 L 628.65 368.98 L 628.09 368.99 L 627.49 369.00 L 626.84 369.00 L 626.16 369.00 L 625.51 369.00 L 624.91 368.99 L 624.35 368.98 L 623.84 368.96 L 623.36 368.94 L 622.93 368.92 L 622.55 368.89 L 622.20 368.86 L 621.90 368.82 L 621.64 368.79 L 621.43 368.74 L 621.26 368.70 L 621.13 368.64 L 621.04 368.59 L 621.00 368.53 L 621.00 368.47 L 620.98 368.41 L 620.95 368.36 L 620.91 368.30 L 620.84 368.26 L 620.77 368.21 L 620.67 368.18 L 620.56 368.14 L 620.44 368.11 L 620.30 368.08 L 620.14 368.06 L 619.97 368.04 L 619.78 368.02 L 619.58 368.01 L 619.36 368.00 L 619.12 368.00 L 618.88 368.00 L 618.61 367.98 L 618.33 367.95 L 618.03 367.91 L 617.72 367.84 L 617.39 367.77 L 617.05 367.67 L 616.69 367.56 L 616.31 367.44 L 615.92 367.30 L 615.52 367.14 L 615.09 366.97 L 614.66 366.78 L 614.20 366.58 L 613.73 366.36 L 613.25 366.12 L 612.75 365.88 L 612.25 365.61 L 611.76 365.34 L 611.27 365.05 L 610.79 364.76 L 610.31 364.45 L 609.83 364.13 L 609.36 363.80 L 608.89 363.45 L 608.43 363.10 L 607.96 362.73 L 607.51 362.35 L 607.05 361.96 L 606.61 361.56 L 606.16 361.14 L 605.72 360.72 L 605.28 360.28 L 604.86 359.85 L 604.45 359.42 L 604.06 358.99 L 603.69 358.57 L 603.33 358.15 L 602.98 357.74 L 602.66 357.33 L 602.34 356.92 L 602.05 356.52 L 601.77 356.12 L 601.50 355.73 L 601.25 355.34 L 601.02 354.95 L 600.80 354.57 L 600.59 354.19 L 600.41 353.81 L 600.23 353.45 L 600.07 353.10 L 599.91 352.76 L 599.77 352.43 L 599.64 352.11 L 599.53 351.81 L 599.42 351.52 L 599.33 351.23 L 599.25 350.96 L 599.18 350.71 L 599.12 350.46 L 599.07 350.23 L 599.04 350.00 L 599.01 349.79 L 599.00 349.59 L 599.00 349.41 L 599.00 349.23 L 598.99 349.07 L 598.98 348.91 L 598.96 348.77 L 598.94 348.64 L 598.92 348.53 L 598.89 348.42 L 598.86 348.33 L 598.82 348.25 L 598.79 348.18 L 598.74 348.12 L 598.70 348.07 L 598.64 348.04 L 598.59 348.01 L 598.53 348.00 L 598.47 348.00 L 598.41 347.98 L 598.36 347.95 L 598.30 347.91 L 598.26 347.84 L 598.21 347.77 L 598.18 347.67 L 598.14 347.56 L 598.11 347.44 L 598.08 347.30 L 598.06 347.14 L 598.04 346.97 L 598.02 346.78 L 598.01 346.58 L 598.00 346.36 L 598.00 346.12 L 598.00 345.88 L 598.00 345.64 L 597.99 345.42 L 597.98 345.22 L 597.96 345.03 L 597.94 344.86 L 597.92 344.70 L 597.89 344.56 L 597.86 344.44 L 597.82 344.33 L 597.79 344.23 L 597.74 344.16 L 597.70 344.09 L 597.64 344.05 L 597.59 344.02 L 597.53 344.00 L 597.47 344.00 L 597.41 343.95 L 597.37 343.84 L 597.33 343.67 L 597.30 343.45 L 597.27 343.18 L 597.26 342.85 L 597.25 342.47 L 597.25 342.03 L 597.26 341.54 L 597.27 340.99 L 597.30 340.39 L 597.33 339.73 L 597.37 339.02 L 597.41 338.26 L 597.47 337.44 L 597.53 336.56 L 597.59 335.74 L 597.66 334.98 L 597.72 334.27 L 597.78 333.61 L 597.84 333.01 L 597.91 332.46 L 597.97 331.97 L 598.03 331.53 L 598.09 331.15 L 598.16 330.82 L 598.22 330.55 L 598.28 330.33 L 598.34 330.16 L 598.41 330.05 L 598.47 330.00 L 598.53 330.00 L 598.59 329.98 L 598.66 329.94 L 598.72 329.88 L 598.78 329.80 L 598.84 329.71 L 598.91 329.59 L 598.97 329.45 L 599.03 329.30 L 599.09 329.12 L 599.16 328.93 L 599.22 328.71 L 599.28 328.48 L 599.34 328.22 L 599.41 327.95 L 599.47 327.66 L 599.53 327.34 L 599.61 327.04 L 599.69 326.73 L 599.79 326.43 L 599.90 326.13 L 600.02 325.84 L 600.15 325.55 L 600.30 325.27 L 600.45 324.98 L 600.62 324.71 L 600.80 324.43 L 600.99 324.16 L 601.20 323.90 L 601.41 323.64 L 601.64 323.38 L 601.88 323.12 L 602.12 322.88 L 602.36 322.63 L 602.58 322.40 L 602.78 322.17 L 602.97 321.95 L 603.14 321.74 L 603.30 321.54 L 603.44 321.34 L 603.56 321.16 L 603.67 320.98 L 603.77 320.80 L 603.84 320.64 L 603.91 320.48 L 603.95 320.34 L 603.98 320.20 L 604.00 320.06 L 604.00 319.94 L 604.02 319.80 L 604.07 319.65 L 604.14 319.49 L 604.23 319.32 L 604.35 319.14 L 604.49 318.94 L 604.66 318.73 L 604.84 318.52 L 605.05 318.29 L 605.29 318.04 L 605.55 317.79 L 605.83 317.52 L 606.13 317.25 L 606.46 316.96 Z" fill="url(#nTop)"/>
<path d="M 343.81 578.19 L 344.19 577.81 L 344.57 577.45 L 344.96 577.09 L 345.36 576.73 L 345.77 576.39 L 346.18 576.05 L 346.60 575.73 L 347.03 575.41 L 347.47 575.09 L 347.91 574.79 L 348.37 574.49 L 348.83 574.20 L 349.30 573.92 L 349.77 573.65 L 350.26 573.38 L 350.75 573.12 L 351.25 572.88 L 351.74 572.64 L 352.21 572.42 L 352.68 572.22 L 353.13 572.03 L 353.57 571.86 L 354.00 571.70 L 354.42 571.56 L 354.83 571.44 L 355.22 571.33 L 355.61 571.23 L 355.98 571.16 L 356.34 571.09 L 356.68 571.05 L 357.02 571.02 L 357.34 571.00 L 357.66 571.00 L 357.95 571.00 L 358.22 570.99 L 358.48 570.98 L 358.71 570.96 L 358.93 570.94 L 359.12 570.92 L 359.30 570.89 L 359.45 570.86 L 359.59 570.82 L 359.71 570.79 L 359.80 570.74 L 359.88 570.70 L 359.94 570.64 L 359.98 570.59 L 360.00 570.53 L 360.00 570.47 L 360.03 570.41 L 360.08 570.36 L 360.16 570.30 L 360.27 570.26 L 360.41 570.21 L 360.57 570.18 L 360.77 570.14 L 360.98 570.11 L 361.23 570.08 L 361.50 570.06 L 361.80 570.04 L 362.13 570.02 L 362.49 570.01 L 362.87 570.00 L 363.28 570.00 L 363.72 570.00 L 364.13 570.00 L 364.51 570.01 L 364.87 570.02 L 365.20 570.04 L 365.50 570.06 L 365.77 570.08 L 366.02 570.11 L 366.23 570.14 L 366.43 570.18 L 366.59 570.21 L 366.73 570.26 L 366.84 570.30 L 366.92 570.36 L 366.97 570.41 L 367.00 570.47 L 367.00 570.53 L 367.02 570.59 L 367.05 570.64 L 367.09 570.70 L 367.16 570.74 L 367.23 570.79 L 367.33 570.82 L 367.44 570.86 L 367.56 570.89 L 367.70 570.92 L 367.86 570.94 L 368.03 570.96 L 368.22 570.98 L 368.42 570.99 L 368.64 571.00 L 368.88 571.00 L 369.12 571.00 L 369.36 571.00 L 369.58 571.01 L 369.78 571.02 L 369.97 571.04 L 370.14 571.06 L 370.30 571.08 L 370.44 571.11 L 370.56 571.14 L 370.67 571.18 L 370.77 571.21 L 370.84 571.26 L 370.91 571.30 L 370.95 571.36 L 370.98 571.41 L 371.00 571.47 L 371.00 571.53 L 371.01 571.59 L 371.04 571.64 L 371.07 571.70 L 371.12 571.74 L 371.18 571.79 L 371.25 571.82 L 371.33 571.86 L 371.42 571.89 L 371.53 571.92 L 371.64 571.94 L 371.77 571.96 L 371.91 571.98 L 372.07 571.99 L 372.23 572.00 L 372.41 572.00 L 372.59 572.00 L 372.79 572.01 L 373.00 572.04 L 373.23 572.07 L 373.46 572.12 L 373.71 572.18 L 373.96 572.25 L 374.23 572.33 L 374.52 572.42 L 374.81 572.53 L 375.11 572.64 L 375.43 572.77 L 375.76 572.91 L 376.10 573.07 L 376.45 573.23 L 376.81 573.41 L 377.19 573.59 L 377.57 573.80 L 377.96 574.04 L 378.36 574.30 L 378.77 574.58 L 379.18 574.88 L 379.60 575.21 L 380.03 575.56 L 380.47 575.94 L 380.91 576.34 L 381.37 576.76 L 381.83 577.20 L 382.30 577.67 L 382.77 578.16 L 383.26 578.68 L 383.75 579.22 L 384.25 579.78 L 384.73 580.34 L 385.18 580.88 L 385.61 581.42 L 386.02 581.95 L 386.40 582.48 L 386.76 582.99 L 387.09 583.50 L 387.41 584.00 L 387.70 584.49 L 387.96 584.98 L 388.20 585.45 L 388.42 585.92 L 388.62 586.38 L 388.79 586.84 L 388.94 587.28 L 389.06 587.72 L 389.18 588.13 L 389.30 588.51 L 389.41 588.87 L 389.52 589.20 L 389.63 589.50 L 389.73 589.77 L 389.83 590.02 L 389.92 590.23 L 390.01 590.43 L 390.10 590.59 L 390.18 590.73 L 390.26 590.84 L 390.33 590.92 L 390.40 590.97 L 390.47 591.00 L 390.53 591.00 L 390.59 591.02 L 390.64 591.05 L 390.70 591.09 L 390.74 591.16 L 390.79 591.23 L 390.82 591.33 L 390.86 591.44 L 390.89 591.56 L 390.92 591.70 L 390.94 591.86 L 390.96 592.03 L 390.98 592.22 L 390.99 592.42 L 391.00 592.64 L 391.00 592.88 L 391.00 593.12 L 391.00 593.36 L 391.01 593.58 L 391.02 593.78 L 391.04 593.97 L 391.06 594.14 L 391.08 594.30 L 391.11 594.44 L 391.14 594.56 L 391.18 594.67 L 391.21 594.77 L 391.26 594.84 L 391.30 594.91 L 391.36 594.95 L 391.41 594.98 L 391.47 595.00 L 391.53 595.00 L 391.59 595.04 L 391.64 595.13 L 391.70 595.26 L 391.74 595.43 L 391.79 595.64 L 391.82 595.90 L 391.86 596.20 L 391.89 596.55 L 391.92 596.93 L 391.94 597.36 L 391.96 597.84 L 391.98 598.35 L 391.99 598.91 L 392.00 599.51 L 392.00 600.16 L 392.00 600.84 L 392.00 601.49 L 391.99 602.09 L 391.98 602.65 L 391.96 603.16 L 391.94 603.64 L 391.92 604.07 L 391.89 604.45 L 391.86 604.80 L 391.82 605.10 L 391.79 605.36 L 391.74 605.57 L 391.70 605.74 L 391.64 605.87 L 391.59 605.96 L 391.53 606.00 L 391.47 606.00 L 391.41 606.02 L 391.34 606.07 L 391.28 606.14 L 391.22 606.23 L 391.16 606.35 L 391.09 606.49 L 391.03 606.66 L 390.97 606.84 L 390.91 607.05 L 390.84 607.29 L 390.78 607.55 L 390.72 607.83 L 390.66 608.13 L 390.59 608.46 L 390.53 608.81 L 390.47 609.19 L 390.40 609.55 L 390.33 609.91 L 390.26 610.27 L 390.18 610.61 L 390.10 610.95 L 390.01 611.27 L 389.92 611.59 L 389.83 611.91 L 389.73 612.21 L 389.63 612.51 L 389.52 612.80 L 389.41 613.08 L 389.30 613.35 L 389.18 613.62 L 389.06 613.88 L 388.94 614.12 L 388.81 614.36 L 388.69 614.59 L 388.56 614.80 L 388.44 615.01 L 388.31 615.20 L 388.19 615.38 L 388.06 615.55 L 387.94 615.70 L 387.81 615.85 L 387.69 615.98 L 387.56 616.10 L 387.44 616.21 L 387.31 616.31 L 387.19 616.39 L 387.06 616.47 L 386.94 616.53 L 386.82 616.60 L 386.71 616.67 L 386.61 616.74 L 386.52 616.82 L 386.43 616.90 L 386.35 616.99 L 386.28 617.08 L 386.22 617.17 L 386.16 617.27 L 386.12 617.37 L 386.08 617.48 L 386.05 617.59 L 386.02 617.70 L 386.01 617.82 L 386.00 617.94 L 386.00 618.06 L 385.97 618.21 L 385.91 618.37 L 385.81 618.55 L 385.69 618.76 L 385.53 618.98 L 385.34 619.22 L 385.12 619.48 L 384.88 619.77 L 384.59 620.07 L 384.28 620.39 L 383.94 620.73 L 383.56 621.09 L 383.16 621.46 L 382.72 621.86 L 382.25 622.28 L 381.75 622.72 L 381.25 623.14 L 380.76 623.54 L 380.27 623.91 L 379.79 624.27 L 379.31 624.61 L 378.83 624.93 L 378.36 625.23 L 377.89 625.52 L 377.43 625.78 L 376.96 626.02 L 376.51 626.24 L 376.05 626.45 L 375.61 626.63 L 375.16 626.79 L 374.72 626.94 L 374.28 627.06 L 373.87 627.18 L 373.49 627.30 L 373.13 627.41 L 372.80 627.52 L 372.50 627.63 L 372.23 627.73 L 371.98 627.83 L 371.77 627.92 L 371.57 628.01 L 371.41 628.10 L 371.27 628.18 L 371.16 628.26 L 371.08 628.33 L 371.03 628.40 L 371.00 628.47 L 371.00 628.53 L 370.98 628.59 L 370.94 628.64 L 370.88 628.70 L 370.80 628.74 L 370.71 628.79 L 370.59 628.82 L 370.45 628.86 L 370.30 628.89 L 370.12 628.92 L 369.93 628.94 L 369.71 628.96 L 369.48 628.98 L 369.22 628.99 L 368.95 629.00 L 368.66 629.00 L 368.34 629.00 L 368.05 629.00 L 367.78 629.01 L 367.52 629.02 L 367.29 629.04 L 367.07 629.06 L 366.88 629.08 L 366.70 629.11 L 366.55 629.14 L 366.41 629.18 L 366.29 629.21 L 366.20 629.26 L 366.12 629.30 L 366.06 629.36 L 366.02 629.41 L 366.00 629.47 L 366.00 629.53 L 365.96 629.59 L 365.88 629.63 L 365.77 629.67 L 365.61 629.70 L 365.41 629.73 L 365.18 629.74 L 364.91 629.75 L 364.59 629.75 L 364.24 629.74 L 363.85 629.73 L 363.42 629.70 L 362.95 629.67 L 362.45 629.63 L 361.90 629.59 L 361.31 629.53 L 360.69 629.47 L 360.10 629.41 L 359.55 629.34 L 359.05 629.28 L 358.58 629.22 L 358.15 629.16 L 357.76 629.09 L 357.41 629.03 L 357.09 628.97 L 356.82 628.91 L 356.59 628.84 L 356.39 628.78 L 356.23 628.72 L 356.12 628.66 L 356.04 628.59 L 356.00 628.53 L 356.00 628.47 L 355.99 628.41 L 355.96 628.36 L 355.93 628.30 L 355.88 628.26 L 355.82 628.21 L 355.75 628.18 L 355.67 628.14 L 355.58 628.11 L 355.47 628.08 L 355.36 628.06 L 355.23 628.04 L 355.09 628.02 L 354.93 628.01 L 354.77 628.00 L 354.59 628.00 L 354.41 628.00 L 354.21 627.99 L 354.00 627.96 L 353.77 627.93 L 353.54 627.88 L 353.29 627.82 L 353.04 627.75 L 352.77 627.67 L 352.48 627.58 L 352.19 627.47 L 351.89 627.36 L 351.57 627.23 L 351.24 627.09 L 350.90 626.93 L 350.55 626.77 L 350.19 626.59 L 349.81 626.41 L 349.43 626.20 L 349.05 625.98 L 348.66 625.75 L 348.27 625.50 L 347.88 625.23 L 347.48 624.95 L 347.08 624.66 L 346.67 624.34 L 346.26 624.02 L 345.85 623.67 L 345.43 623.31 L 345.01 622.94 L 344.58 622.55 L 344.15 622.14 L 343.72 621.72 L 343.28 621.28 L 342.87 620.86 L 342.49 620.46 L 342.13 620.09 L 341.80 619.73 L 341.50 619.39 L 341.23 619.07 L 340.98 618.77 L 340.77 618.48 L 340.57 618.22 L 340.41 617.98 L 340.27 617.76 L 340.16 617.55 L 340.08 617.37 L 340.03 617.21 L 340.00 617.06 L 340.00 616.94 L 339.99 616.81 L 339.96 616.68 L 339.93 616.54 L 339.88 616.40 L 339.82 616.25 L 339.75 616.11 L 339.67 615.95 L 339.58 615.80 L 339.47 615.64 L 339.36 615.47 L 339.23 615.30 L 339.09 615.13 L 338.93 614.96 L 338.77 614.78 L 338.59 614.59 L 338.41 614.41 L 338.23 614.21 L 338.05 614.00 L 337.89 613.77 L 337.73 613.54 L 337.59 613.29 L 337.45 613.04 L 337.31 612.77 L 337.19 612.48 L 337.07 612.19 L 336.96 611.89 L 336.86 611.57 L 336.77 611.24 L 336.68 610.90 L 336.60 610.55 L 336.53 610.19 L 336.47 609.81 L 336.41 609.46 L 336.34 609.13 L 336.28 608.83 L 336.22 608.55 L 336.16 608.29 L 336.09 608.05 L 336.03 607.84 L 335.97 607.66 L 335.91 607.49 L 335.84 607.35 L 335.78 607.23 L 335.72 607.14 L 335.66 607.07 L 335.59 607.02 L 335.53 607.00 L 335.47 607.00 L 335.41 606.95 L 335.36 606.84 L 335.30 606.67 L 335.26 606.45 L 335.21 606.18 L 335.18 605.85 L 335.14 605.47 L 335.11 605.03 L 335.08 604.54 L 335.06 603.99 L 335.04 603.39 L 335.02 602.73 L 335.01 602.02 L 335.00 601.26 L 335.00 600.44 L 335.00 599.56 L 335.02 598.70 L 335.07 597.84 L 335.14 596.98 L 335.23 596.14 L 335.35 595.30 L 335.49 594.48 L 335.66 593.66 L 335.84 592.84 L 336.05 592.04 L 336.29 591.24 L 336.55 590.45 L 336.83 589.67 L 337.13 588.90 L 337.46 588.13 L 337.81 587.38 L 338.19 586.62 L 338.56 585.90 L 338.94 585.20 L 339.31 584.52 L 339.69 583.86 L 340.06 583.23 L 340.44 582.62 L 340.81 582.03 L 341.19 581.47 L 341.56 580.93 L 341.94 580.41 L 342.31 579.92 L 342.69 579.45 L 343.06 579.01 L 343.44 578.59 Z" fill="url(#nLeft)"/>
<path d="M 871.75 577.72 L 872.25 577.28 L 872.74 576.86 L 873.23 576.45 L 873.70 576.06 L 874.17 575.69 L 874.63 575.33 L 875.09 574.98 L 875.53 574.66 L 875.97 574.34 L 876.40 574.05 L 876.82 573.77 L 877.23 573.50 L 877.64 573.25 L 878.04 573.02 L 878.43 572.80 L 878.81 572.59 L 879.19 572.41 L 879.55 572.23 L 879.91 572.07 L 880.27 571.91 L 880.61 571.77 L 880.95 571.64 L 881.27 571.53 L 881.59 571.42 L 881.91 571.33 L 882.21 571.25 L 882.51 571.18 L 882.80 571.12 L 883.08 571.07 L 883.35 571.04 L 883.62 571.01 L 883.88 571.00 L 884.12 571.00 L 884.36 571.00 L 884.58 570.99 L 884.78 570.98 L 884.97 570.96 L 885.14 570.94 L 885.30 570.92 L 885.44 570.89 L 885.56 570.86 L 885.67 570.82 L 885.77 570.79 L 885.84 570.74 L 885.91 570.70 L 885.95 570.64 L 885.98 570.59 L 886.00 570.53 L 886.00 570.47 L 886.05 570.41 L 886.16 570.37 L 886.33 570.33 L 886.55 570.30 L 886.82 570.27 L 887.15 570.26 L 887.53 570.25 L 887.97 570.25 L 888.46 570.26 L 889.01 570.27 L 889.61 570.30 L 890.27 570.33 L 890.98 570.37 L 891.74 570.41 L 892.56 570.47 L 893.44 570.53 L 894.29 570.61 L 895.12 570.69 L 895.92 570.79 L 896.70 570.90 L 897.46 571.02 L 898.20 571.15 L 898.91 571.30 L 899.59 571.45 L 900.26 571.62 L 900.90 571.80 L 901.52 571.99 L 902.11 572.20 L 902.68 572.41 L 903.23 572.64 L 903.75 572.88 L 904.25 573.12 L 904.75 573.39 L 905.25 573.68 L 905.75 573.99 L 906.25 574.32 L 906.75 574.67 L 907.25 575.04 L 907.75 575.42 L 908.25 575.83 L 908.75 576.25 L 909.25 576.70 L 909.75 577.16 L 910.25 577.65 L 910.75 578.15 L 911.25 578.68 L 911.75 579.22 L 912.25 579.78 L 912.73 580.34 L 913.18 580.88 L 913.61 581.42 L 914.02 581.95 L 914.40 582.48 L 914.76 582.99 L 915.09 583.50 L 915.41 584.00 L 915.70 584.49 L 915.96 584.98 L 916.20 585.45 L 916.42 585.92 L 916.62 586.38 L 916.79 586.84 L 916.94 587.28 L 917.06 587.72 L 917.18 588.13 L 917.30 588.51 L 917.41 588.87 L 917.52 589.20 L 917.63 589.50 L 917.73 589.77 L 917.83 590.02 L 917.92 590.23 L 918.01 590.43 L 918.10 590.59 L 918.18 590.73 L 918.26 590.84 L 918.33 590.92 L 918.40 590.97 L 918.47 591.00 L 918.53 591.00 L 918.59 591.02 L 918.64 591.06 L 918.70 591.12 L 918.74 591.20 L 918.79 591.29 L 918.82 591.41 L 918.86 591.55 L 918.89 591.70 L 918.92 591.88 L 918.94 592.07 L 918.96 592.29 L 918.98 592.52 L 918.99 592.78 L 919.00 593.05 L 919.00 593.34 L 919.00 593.66 L 919.00 593.95 L 919.01 594.22 L 919.02 594.48 L 919.04 594.71 L 919.06 594.93 L 919.08 595.12 L 919.11 595.30 L 919.14 595.45 L 919.18 595.59 L 919.21 595.71 L 919.26 595.80 L 919.30 595.88 L 919.36 595.94 L 919.41 595.98 L 919.47 596.00 L 919.53 596.00 L 919.59 596.05 L 919.63 596.15 L 919.67 596.30 L 919.70 596.51 L 919.73 596.76 L 919.74 597.07 L 919.75 597.42 L 919.75 597.83 L 919.74 598.29 L 919.73 598.79 L 919.70 599.35 L 919.67 599.96 L 919.63 600.62 L 919.59 601.33 L 919.53 602.09 L 919.47 602.91 L 919.39 603.71 L 919.30 604.50 L 919.19 605.27 L 919.06 606.04 L 918.92 606.79 L 918.77 607.54 L 918.59 608.27 L 918.41 608.98 L 918.20 609.69 L 917.98 610.39 L 917.75 611.07 L 917.50 611.74 L 917.23 612.40 L 916.95 613.05 L 916.66 613.69 L 916.34 614.31 L 916.02 614.93 L 915.68 615.53 L 915.34 616.12 L 914.98 616.70 L 914.61 617.26 L 914.22 617.82 L 913.83 618.36 L 913.42 618.89 L 913.00 619.41 L 912.57 619.92 L 912.13 620.41 L 911.68 620.90 L 911.21 621.37 L 910.74 621.83 L 910.25 622.28 L 909.75 622.72 L 909.26 623.14 L 908.77 623.55 L 908.30 623.94 L 907.83 624.31 L 907.37 624.67 L 906.91 625.02 L 906.47 625.34 L 906.03 625.66 L 905.60 625.95 L 905.18 626.23 L 904.77 626.50 L 904.36 626.75 L 903.96 626.98 L 903.57 627.20 L 903.19 627.41 L 902.81 627.59 L 902.44 627.77 L 902.07 627.93 L 901.71 628.09 L 901.35 628.23 L 901.00 628.36 L 900.64 628.47 L 900.30 628.58 L 899.95 628.67 L 899.61 628.75 L 899.28 628.82 L 898.95 628.88 L 898.62 628.93 L 898.29 628.96 L 897.97 628.99 L 897.66 629.00 L 897.34 629.00 L 897.05 629.00 L 896.78 629.01 L 896.52 629.02 L 896.29 629.04 L 896.07 629.06 L 895.88 629.08 L 895.70 629.11 L 895.55 629.14 L 895.41 629.18 L 895.29 629.21 L 895.20 629.26 L 895.12 629.30 L 895.06 629.36 L 895.02 629.41 L 895.00 629.47 L 895.00 629.53 L 894.95 629.59 L 894.86 629.63 L 894.72 629.67 L 894.53 629.70 L 894.30 629.73 L 894.02 629.74 L 893.69 629.75 L 893.31 629.75 L 892.89 629.74 L 892.42 629.73 L 891.91 629.70 L 891.34 629.67 L 890.73 629.63 L 890.08 629.59 L 889.38 629.53 L 888.62 629.47 L 887.88 629.39 L 887.15 629.30 L 886.42 629.19 L 885.70 629.06 L 884.99 628.92 L 884.29 628.77 L 883.59 628.59 L 882.91 628.41 L 882.23 628.20 L 881.55 627.98 L 880.89 627.75 L 880.23 627.50 L 879.59 627.23 L 878.95 626.95 L 878.31 626.66 L 877.69 626.34 L 877.07 626.02 L 876.47 625.68 L 875.88 625.34 L 875.30 624.98 L 874.74 624.61 L 874.18 624.22 L 873.64 623.83 L 873.11 623.42 L 872.59 623.00 L 872.08 622.57 L 871.59 622.13 L 871.10 621.68 L 870.63 621.21 L 870.17 620.74 L 869.72 620.25 L 869.28 619.75 L 868.86 619.25 L 868.46 618.76 L 868.09 618.27 L 867.73 617.79 L 867.39 617.31 L 867.07 616.83 L 866.77 616.36 L 866.48 615.89 L 866.22 615.43 L 865.98 614.96 L 865.76 614.51 L 865.55 614.05 L 865.37 613.61 L 865.21 613.16 L 865.06 612.72 L 864.94 612.28 L 864.82 611.87 L 864.70 611.49 L 864.59 611.13 L 864.48 610.80 L 864.37 610.50 L 864.27 610.23 L 864.17 609.98 L 864.08 609.77 L 863.99 609.57 L 863.90 609.41 L 863.82 609.27 L 863.74 609.16 L 863.67 609.08 L 863.60 609.03 L 863.53 609.00 L 863.47 609.00 L 863.41 608.98 L 863.36 608.95 L 863.30 608.91 L 863.26 608.84 L 863.21 608.77 L 863.18 608.67 L 863.14 608.56 L 863.11 608.44 L 863.08 608.30 L 863.06 608.14 L 863.04 607.97 L 863.02 607.78 L 863.01 607.58 L 863.00 607.36 L 863.00 607.12 L 863.00 606.88 L 863.00 606.64 L 862.99 606.42 L 862.98 606.22 L 862.96 606.03 L 862.94 605.86 L 862.92 605.70 L 862.89 605.56 L 862.86 605.44 L 862.82 605.33 L 862.79 605.23 L 862.74 605.16 L 862.70 605.09 L 862.64 605.05 L 862.59 605.02 L 862.53 605.00 L 862.47 605.00 L 862.41 604.96 L 862.36 604.88 L 862.30 604.77 L 862.26 604.61 L 862.21 604.41 L 862.18 604.18 L 862.14 603.91 L 862.11 603.59 L 862.08 603.24 L 862.06 602.85 L 862.04 602.42 L 862.02 601.95 L 862.01 601.45 L 862.00 600.90 L 862.00 600.31 L 862.00 599.69 L 862.00 599.10 L 862.01 598.55 L 862.02 598.05 L 862.04 597.58 L 862.06 597.15 L 862.08 596.76 L 862.11 596.41 L 862.14 596.09 L 862.18 595.82 L 862.21 595.59 L 862.26 595.39 L 862.30 595.23 L 862.36 595.12 L 862.41 595.04 L 862.47 595.00 L 862.53 595.00 L 862.59 594.97 L 862.66 594.92 L 862.72 594.84 L 862.78 594.73 L 862.84 594.59 L 862.91 594.43 L 862.97 594.23 L 863.03 594.02 L 863.09 593.77 L 863.16 593.50 L 863.22 593.20 L 863.28 592.87 L 863.34 592.51 L 863.41 592.13 L 863.47 591.72 L 863.53 591.28 L 863.60 590.86 L 863.67 590.44 L 863.74 590.04 L 863.82 589.65 L 863.90 589.27 L 863.99 588.90 L 864.08 588.55 L 864.17 588.20 L 864.27 587.87 L 864.37 587.55 L 864.48 587.24 L 864.59 586.95 L 864.70 586.66 L 864.82 586.39 L 864.94 586.12 L 865.06 585.88 L 865.19 585.64 L 865.31 585.41 L 865.44 585.20 L 865.56 584.99 L 865.69 584.80 L 865.81 584.62 L 865.94 584.45 L 866.06 584.30 L 866.19 584.15 L 866.31 584.02 L 866.44 583.90 L 866.56 583.79 L 866.69 583.69 L 866.81 583.61 L 866.94 583.53 L 867.06 583.47 L 867.18 583.40 L 867.29 583.33 L 867.39 583.26 L 867.48 583.18 L 867.57 583.10 L 867.65 583.01 L 867.72 582.92 L 867.78 582.83 L 867.84 582.73 L 867.88 582.63 L 867.92 582.52 L 867.95 582.41 L 867.98 582.30 L 867.99 582.18 L 868.00 582.06 L 868.00 581.94 L 868.03 581.79 L 868.09 581.63 L 868.19 581.45 L 868.31 581.24 L 868.47 581.02 L 868.66 580.78 L 868.88 580.52 L 869.12 580.23 L 869.41 579.93 L 869.72 579.61 L 870.06 579.27 L 870.44 578.91 L 870.84 578.54 L 871.28 578.14 Z" fill="url(#nRight)"/>
<path d="M 605.28 849.72 L 605.72 849.28 L 606.15 848.86 L 606.58 848.45 L 607.01 848.06 L 607.43 847.69 L 607.85 847.33 L 608.26 846.98 L 608.67 846.66 L 609.08 846.34 L 609.48 846.05 L 609.88 845.77 L 610.27 845.50 L 610.66 845.25 L 611.05 845.02 L 611.43 844.80 L 611.81 844.59 L 612.19 844.41 L 612.55 844.23 L 612.90 844.07 L 613.24 843.91 L 613.57 843.77 L 613.89 843.64 L 614.19 843.53 L 614.48 843.42 L 614.77 843.33 L 615.04 843.25 L 615.29 843.18 L 615.54 843.12 L 615.77 843.07 L 616.00 843.04 L 616.21 843.01 L 616.41 843.00 L 616.59 843.00 L 616.77 843.00 L 616.93 842.99 L 617.09 842.98 L 617.23 842.96 L 617.36 842.94 L 617.47 842.92 L 617.58 842.89 L 617.67 842.86 L 617.75 842.82 L 617.82 842.79 L 617.88 842.74 L 617.93 842.70 L 617.96 842.64 L 617.99 842.59 L 618.00 842.53 L 618.00 842.47 L 618.02 842.41 L 618.05 842.36 L 618.09 842.30 L 618.16 842.26 L 618.23 842.21 L 618.33 842.18 L 618.44 842.14 L 618.56 842.11 L 618.70 842.08 L 618.86 842.06 L 619.03 842.04 L 619.22 842.02 L 619.42 842.01 L 619.64 842.00 L 619.88 842.00 L 620.12 842.00 L 620.36 842.00 L 620.58 841.99 L 620.78 841.98 L 620.97 841.96 L 621.14 841.94 L 621.30 841.92 L 621.44 841.89 L 621.56 841.86 L 621.67 841.82 L 621.77 841.79 L 621.84 841.74 L 621.91 841.70 L 621.95 841.64 L 621.98 841.59 L 622.00 841.53 L 622.00 841.47 L 622.04 841.41 L 622.11 841.36 L 622.21 841.30 L 622.35 841.26 L 622.53 841.21 L 622.74 841.18 L 622.98 841.14 L 623.27 841.11 L 623.58 841.08 L 623.93 841.06 L 624.32 841.04 L 624.74 841.02 L 625.20 841.01 L 625.69 841.00 L 626.22 841.00 L 626.78 841.00 L 627.31 841.00 L 627.80 841.01 L 628.26 841.02 L 628.68 841.04 L 629.07 841.06 L 629.42 841.08 L 629.73 841.11 L 630.02 841.14 L 630.26 841.18 L 630.47 841.21 L 630.65 841.26 L 630.79 841.30 L 630.89 841.36 L 630.96 841.41 L 631.00 841.47 L 631.00 841.53 L 631.02 841.59 L 631.05 841.64 L 631.09 841.70 L 631.16 841.74 L 631.23 841.79 L 631.33 841.82 L 631.44 841.86 L 631.56 841.89 L 631.70 841.92 L 631.86 841.94 L 632.03 841.96 L 632.22 841.98 L 632.42 841.99 L 632.64 842.00 L 632.88 842.00 L 633.12 842.00 L 633.39 842.02 L 633.67 842.05 L 633.97 842.09 L 634.28 842.16 L 634.61 842.23 L 634.95 842.33 L 635.31 842.44 L 635.69 842.56 L 636.08 842.70 L 636.48 842.86 L 636.91 843.03 L 637.34 843.22 L 637.80 843.42 L 638.27 843.64 L 638.75 843.88 L 639.25 844.12 L 639.75 844.39 L 640.24 844.66 L 640.73 844.95 L 641.21 845.24 L 641.69 845.55 L 642.17 845.87 L 642.64 846.20 L 643.11 846.55 L 643.57 846.90 L 644.04 847.27 L 644.49 847.65 L 644.95 848.04 L 645.39 848.44 L 645.84 848.86 L 646.28 849.28 L 646.72 849.72 L 647.14 850.16 L 647.56 850.61 L 647.96 851.05 L 648.35 851.51 L 648.73 851.96 L 649.10 852.43 L 649.45 852.89 L 649.80 853.36 L 650.13 853.83 L 650.45 854.31 L 650.76 854.79 L 651.05 855.27 L 651.34 855.76 L 651.61 856.25 L 651.88 856.75 L 652.12 857.25 L 652.36 857.73 L 652.58 858.20 L 652.78 858.66 L 652.97 859.09 L 653.14 859.52 L 653.30 859.92 L 653.44 860.31 L 653.56 860.69 L 653.67 861.05 L 653.77 861.39 L 653.84 861.72 L 653.91 862.03 L 653.95 862.33 L 653.98 862.61 L 654.00 862.88 L 654.00 863.12 L 654.00 863.36 L 654.01 863.58 L 654.02 863.78 L 654.04 863.97 L 654.06 864.14 L 654.08 864.30 L 654.11 864.44 L 654.14 864.56 L 654.18 864.67 L 654.21 864.77 L 654.26 864.84 L 654.30 864.91 L 654.36 864.95 L 654.41 864.98 L 654.47 865.00 L 654.53 865.00 L 654.59 865.05 L 654.63 865.15 L 654.67 865.30 L 654.70 865.51 L 654.73 865.76 L 654.74 866.07 L 654.75 866.42 L 654.75 866.83 L 654.74 867.29 L 654.73 867.79 L 654.70 868.35 L 654.67 868.96 L 654.63 869.62 L 654.59 870.33 L 654.53 871.09 L 654.47 871.91 L 654.39 872.71 L 654.30 873.50 L 654.19 874.27 L 654.06 875.04 L 653.92 875.79 L 653.77 876.54 L 653.59 877.27 L 653.41 877.98 L 653.20 878.69 L 652.98 879.39 L 652.75 880.07 L 652.50 880.74 L 652.23 881.40 L 651.95 882.05 L 651.66 882.69 L 651.34 883.31 L 651.02 883.93 L 650.68 884.53 L 650.34 885.12 L 649.98 885.70 L 649.61 886.26 L 649.22 886.82 L 648.83 887.36 L 648.42 887.89 L 648.00 888.41 L 647.57 888.92 L 647.13 889.41 L 646.68 889.90 L 646.21 890.37 L 645.74 890.83 L 645.25 891.28 L 644.75 891.72 L 644.26 892.13 L 643.79 892.52 L 643.32 892.89 L 642.87 893.23 L 642.43 893.55 L 642.00 893.85 L 641.58 894.12 L 641.17 894.38 L 640.78 894.60 L 640.39 894.80 L 640.02 894.98 L 639.66 895.14 L 639.32 895.27 L 638.98 895.38 L 638.66 895.47 L 638.34 895.53 L 638.04 895.60 L 637.75 895.67 L 637.48 895.74 L 637.21 895.82 L 636.96 895.90 L 636.71 895.99 L 636.48 896.08 L 636.27 896.17 L 636.06 896.27 L 635.86 896.37 L 635.68 896.48 L 635.51 896.59 L 635.35 896.70 L 635.20 896.82 L 635.06 896.94 L 634.94 897.06 L 634.80 897.18 L 634.64 897.29 L 634.47 897.39 L 634.28 897.48 L 634.08 897.57 L 633.86 897.65 L 633.62 897.72 L 633.38 897.78 L 633.11 897.84 L 632.83 897.88 L 632.53 897.92 L 632.22 897.95 L 631.89 897.98 L 631.55 897.99 L 631.19 898.00 L 630.81 898.00 L 630.46 898.00 L 630.13 898.01 L 629.83 898.02 L 629.55 898.04 L 629.29 898.06 L 629.05 898.08 L 628.84 898.11 L 628.66 898.14 L 628.49 898.18 L 628.35 898.21 L 628.23 898.26 L 628.14 898.30 L 628.07 898.36 L 628.02 898.41 L 628.00 898.47 L 628.00 898.53 L 627.96 898.59 L 627.88 898.63 L 627.77 898.67 L 627.61 898.70 L 627.41 898.73 L 627.18 898.74 L 626.91 898.75 L 626.59 898.75 L 626.24 898.74 L 625.85 898.73 L 625.42 898.70 L 624.95 898.67 L 624.45 898.63 L 623.90 898.59 L 623.31 898.53 L 622.69 898.47 L 622.06 898.39 L 621.44 898.30 L 620.81 898.19 L 620.19 898.06 L 619.56 897.92 L 618.94 897.77 L 618.31 897.59 L 617.69 897.41 L 617.06 897.20 L 616.44 896.98 L 615.81 896.75 L 615.19 896.50 L 614.56 896.23 L 613.94 895.95 L 613.31 895.66 L 612.69 895.34 L 612.08 895.03 L 611.48 894.71 L 610.91 894.38 L 610.34 894.05 L 609.80 893.72 L 609.27 893.39 L 608.75 893.05 L 608.25 892.70 L 607.77 892.36 L 607.30 892.00 L 606.84 891.65 L 606.41 891.29 L 605.98 890.93 L 605.58 890.56 L 605.19 890.19 L 604.81 889.81 L 604.45 889.44 L 604.10 889.06 L 603.76 888.69 L 603.43 888.31 L 603.11 887.94 L 602.81 887.56 L 602.52 887.19 L 602.23 886.81 L 601.96 886.44 L 601.71 886.06 L 601.46 885.69 L 601.23 885.31 L 601.00 884.94 L 600.79 884.56 L 600.59 884.19 L 600.41 883.81 L 600.23 883.45 L 600.07 883.10 L 599.91 882.76 L 599.77 882.43 L 599.64 882.11 L 599.53 881.81 L 599.42 881.52 L 599.33 881.23 L 599.25 880.96 L 599.18 880.71 L 599.12 880.46 L 599.07 880.23 L 599.04 880.00 L 599.01 879.79 L 599.00 879.59 L 599.00 879.41 L 599.00 879.23 L 598.99 879.07 L 598.98 878.91 L 598.96 878.77 L 598.94 878.64 L 598.92 878.53 L 598.89 878.42 L 598.86 878.33 L 598.82 878.25 L 598.79 878.18 L 598.74 878.12 L 598.70 878.07 L 598.64 878.04 L 598.59 878.01 L 598.53 878.00 L 598.47 878.00 L 598.41 877.98 L 598.36 877.95 L 598.30 877.91 L 598.26 877.84 L 598.21 877.77 L 598.18 877.67 L 598.14 877.56 L 598.11 877.44 L 598.08 877.30 L 598.06 877.14 L 598.04 876.97 L 598.02 876.78 L 598.01 876.58 L 598.00 876.36 L 598.00 876.12 L 598.00 875.88 L 598.00 875.64 L 597.99 875.42 L 597.98 875.22 L 597.96 875.03 L 597.94 874.86 L 597.92 874.70 L 597.89 874.56 L 597.86 874.44 L 597.82 874.33 L 597.79 874.23 L 597.74 874.16 L 597.70 874.09 L 597.64 874.05 L 597.59 874.02 L 597.53 874.00 L 597.47 874.00 L 597.41 873.97 L 597.36 873.91 L 597.30 873.81 L 597.26 873.69 L 597.21 873.53 L 597.18 873.34 L 597.14 873.12 L 597.11 872.88 L 597.08 872.59 L 597.06 872.28 L 597.04 871.94 L 597.02 871.56 L 597.01 871.16 L 597.00 870.72 L 597.00 870.25 L 597.00 869.75 L 597.00 869.28 L 597.01 868.84 L 597.02 868.44 L 597.04 868.06 L 597.06 867.72 L 597.08 867.41 L 597.11 867.12 L 597.14 866.88 L 597.18 866.66 L 597.21 866.47 L 597.26 866.31 L 597.30 866.19 L 597.36 866.09 L 597.41 866.03 L 597.47 866.00 L 597.53 866.00 L 597.59 865.98 L 597.64 865.95 L 597.70 865.91 L 597.74 865.84 L 597.79 865.77 L 597.82 865.67 L 597.86 865.56 L 597.89 865.44 L 597.92 865.30 L 597.94 865.14 L 597.96 864.97 L 597.98 864.78 L 597.99 864.58 L 598.00 864.36 L 598.00 864.12 L 598.00 863.88 L 598.00 863.64 L 598.01 863.42 L 598.02 863.22 L 598.04 863.03 L 598.06 862.86 L 598.08 862.70 L 598.11 862.56 L 598.14 862.44 L 598.18 862.33 L 598.21 862.23 L 598.26 862.16 L 598.30 862.09 L 598.36 862.05 L 598.41 862.02 L 598.47 862.00 L 598.53 862.00 L 598.59 861.99 L 598.64 861.96 L 598.70 861.93 L 598.74 861.88 L 598.79 861.82 L 598.82 861.75 L 598.86 861.67 L 598.89 861.58 L 598.92 861.47 L 598.94 861.36 L 598.96 861.23 L 598.98 861.09 L 598.99 860.93 L 599.00 860.77 L 599.00 860.59 L 599.00 860.41 L 599.01 860.21 L 599.04 860.00 L 599.07 859.77 L 599.12 859.54 L 599.18 859.29 L 599.25 859.04 L 599.33 858.77 L 599.42 858.48 L 599.53 858.19 L 599.64 857.89 L 599.77 857.57 L 599.91 857.24 L 600.07 856.90 L 600.23 856.55 L 600.41 856.19 L 600.59 855.81 L 600.80 855.43 L 601.02 855.05 L 601.25 854.66 L 601.50 854.27 L 601.77 853.88 L 602.05 853.48 L 602.34 853.08 L 602.66 852.67 L 602.98 852.26 L 603.33 851.85 L 603.69 851.43 L 604.06 851.01 L 604.45 850.58 L 604.86 850.15 Z" fill="url(#nBottom)"/>
<path d="M 580.25 511.19 L 585.75 505.81 L 590.81 501.02 L 595.44 496.80 L 599.62 493.16 L 603.38 490.09 L 606.69 487.61 L 609.56 485.70 L 612.00 484.38 L 614.00 483.62 L 615.98 482.98 L 617.95 482.45 L 619.91 482.03 L 621.84 481.72 L 623.77 481.52 L 625.67 481.42 L 627.56 481.44 L 629.44 481.56 L 631.30 481.78 L 633.14 482.09 L 634.97 482.50 L 636.78 483.00 L 638.58 483.59 L 640.36 484.28 L 642.12 485.06 L 643.88 485.94 L 646.73 488.03 L 650.70 491.34 L 655.78 495.88 L 661.97 501.62 L 669.27 508.59 L 677.67 516.78 L 687.19 526.19 L 697.81 536.81 L 707.23 546.31 L 715.45 554.69 L 722.47 561.94 L 728.28 568.06 L 732.89 573.06 L 736.30 576.94 L 738.50 579.69 L 739.50 581.31 L 740.41 583.09 L 741.22 585.03 L 741.94 587.12 L 742.56 589.38 L 743.09 591.78 L 743.53 594.34 L 743.88 597.06 L 744.12 599.94 L 744.23 602.70 L 744.20 605.36 L 744.03 607.91 L 743.72 610.34 L 743.27 612.67 L 742.67 614.89 L 741.94 617.00 L 741.06 619.00 L 738.83 622.22 L 735.23 626.66 L 730.28 632.31 L 723.97 639.19 L 716.30 647.28 L 707.27 656.59 L 696.88 667.12 L 685.12 678.88 L 674.52 689.22 L 665.05 698.16 L 656.72 705.69 L 649.53 711.81 L 643.48 716.53 L 638.58 719.84 L 634.81 721.75 L 632.19 722.25 L 629.59 722.58 L 627.03 722.73 L 624.50 722.72 L 622.00 722.53 L 619.53 722.17 L 617.09 721.64 L 614.69 720.94 L 612.31 720.06 L 610.09 719.16 L 608.03 718.22 L 606.12 717.25 L 604.38 716.25 L 602.78 715.22 L 601.34 714.16 L 600.06 713.06 L 598.94 711.94 L 597.97 710.92 L 597.16 710.02 L 596.50 709.22 L 596.00 708.53 L 595.66 707.95 L 595.47 707.48 L 595.44 707.12 L 595.56 706.88 L 595.62 706.67 L 595.62 706.52 L 595.56 706.41 L 595.44 706.34 L 595.25 706.33 L 595.00 706.36 L 594.69 706.44 L 594.31 706.56 L 592.77 705.42 L 590.05 703.02 L 586.16 699.34 L 581.09 694.41 L 574.86 688.20 L 567.45 680.73 L 558.88 672.00 L 549.12 662.00 L 540.50 653.08 L 533.00 645.23 L 526.62 638.47 L 521.38 632.78 L 517.25 628.17 L 514.25 624.64 L 512.38 622.19 L 511.62 620.81 L 510.94 619.30 L 510.31 617.64 L 509.75 615.84 L 509.25 613.91 L 508.81 611.83 L 508.44 609.61 L 508.12 607.25 L 507.88 604.75 L 507.75 602.31 L 507.75 599.94 L 507.88 597.62 L 508.12 595.38 L 508.50 593.19 L 509.00 591.06 L 509.62 589.00 L 510.38 587.00 L 511.78 584.47 L 513.84 581.41 L 516.56 577.81 L 519.94 573.69 L 523.97 569.03 L 528.66 563.84 L 534.00 558.12 L 540.00 551.88 L 545.94 545.73 L 551.81 539.70 L 557.62 533.78 L 563.38 527.97 L 569.06 522.27 L 574.69 516.67 Z" fill="url(#gCenter)"/>
</svg>
